<svg width="1280" height="780" viewBox="0 0 1280 780" fill="none" xmlns="http://www.w3.org/2000/svg">
<g clip-path="url(#clip0_3619_13123)">
<rect width="1280" height="780" fill="#060606"/>
<g opacity="0.4" clip-path="url(#clip1_3619_13123)">
<path d="M-493.989 629.357C-478.24 390.673 -385.893 107.293 -266.597 -68.0268C-146.664 -244.283 -19.7459 -281.637 45.6125 -160.736C111.241 -39.3369 103.578 222.54 26.62 480.814C-50.0444 738.116 -181.885 948.665 -298.157 999.393C-412.438 1049.25 -492.957 934.557 -496.357 716.99C-496.791 689.024 -495.99 659.684 -493.989 629.357Z" stroke="white" stroke-width="0.1018" stroke-miterlimit="10"/>
<path d="M-501.074 620.678C-481.996 379.328 -384.685 95.8246 -261.473 -77.0063C-137.602 -250.759 -8.47288 -283.389 56.1924 -158.116C121.127 -32.3232 109.938 232.875 28.5652 491.565C-52.51 749.279 -188.896 957.306 -307.413 1003.94C-423.899 1049.77 -504.013 930.161 -504.618 709.431C-504.694 681.056 -503.5 651.344 -501.074 620.678Z" stroke="white" stroke-width="0.1032" stroke-miterlimit="10"/>
<path d="M-508.144 611.583C-485.653 367.668 -383.318 84.2438 -256.171 -85.9045C-128.348 -256.957 2.964 -284.71 66.8781 -155.023C131.051 -24.7978 116.247 243.623 30.3846 502.541C-55.1553 760.488 -196.116 965.774 -316.852 1008.16C-435.52 1049.81 -515.162 925.236 -512.893 701.412C-512.601 672.654 -511.002 642.574 -508.144 611.583Z" stroke="white" stroke-width="0.1046" stroke-miterlimit="10"/>
<path d="M-515.192 602.074C-489.208 355.7 -381.777 72.5595 -250.677 -94.6983C-118.878 -262.849 14.582 -285.565 77.6693 -151.44C141.015 -16.7554 122.502 254.783 32.0885 513.756C-57.9843 771.755 -203.544 974.078 -326.479 1012.06C-447.304 1049.4 -526.406 919.805 -521.178 692.961C-520.506 663.809 -518.492 633.379 -515.192 602.074Z" stroke="white" stroke-width="0.1061" stroke-miterlimit="10"/>
<path d="M-522.211 592.142C-492.654 343.415 -380.063 60.7852 -244.993 -103.388C-109.206 -268.437 26.3702 -285.959 88.5585 -147.361C151.008 -8.1935 128.692 266.356 33.6667 525.191C-61.0001 783.055 -211.186 982.174 -336.289 1015.61C-459.247 1048.48 -537.728 913.81 -529.468 684.037C-528.402 654.513 -525.964 623.743 -522.211 592.142Z" stroke="white" stroke-width="0.1076" stroke-miterlimit="10"/>
<path d="M-529.193 581.782C-495.983 330.821 -378.171 48.9104 -239.121 -111.964C-99.3282 -273.695 38.3179 -285.866 99.546 -142.773C161.024 0.909149 134.82 278.348 35.1189 536.859C-64.2027 794.393 -219.033 990.079 -346.271 1018.82C-471.332 1047.07 -549.12 907.292 -537.746 674.666C-536.287 644.762 -533.409 613.668 -529.193 581.782Z" stroke="white" stroke-width="0.1091" stroke-miterlimit="10"/>
<path d="M-536.134 570.989C-499.198 317.913 -376.095 36.9492 -233.051 -120.422C-89.2457 -278.631 50.4353 -285.284 110.628 -137.678C171.07 10.5386 140.88 290.749 36.4489 548.736C-67.592 805.75 -227.086 997.763 -356.433 1021.65C-483.564 1045.12 -560.587 900.192 -546.019 664.804C-544.149 634.554 -540.829 603.145 -536.134 570.989Z" stroke="white" stroke-width="0.1106" stroke-miterlimit="10"/>
<path d="M-543.032 559.76C-502.286 304.693 -373.839 24.9053 -226.793 -128.737C-78.9622 -283.206 62.7008 -284.184 121.782 -132.041C181.109 20.7297 146.85 303.589 37.6243 560.847C-71.1855 817.128 -235.354 1005.22 -366.778 1024.1C-495.947 1042.65 -572.119 892.528 -554.28 654.474C-551.984 623.877 -548.208 592.169 -543.032 559.76Z" stroke="white" stroke-width="0.1122" stroke-miterlimit="10"/>
<path d="M-549.876 548.085C-505.243 291.157 -371.392 12.7904 -220.341 -136.922C-68.4847 -287.432 75.125 -282.575 133.019 -125.879C191.155 31.462 152.736 316.84 38.6636 573.159C-74.9726 828.517 -243.836 1012.45 -377.29 1026.16C-508.456 1039.64 -583.708 884.281 -562.513 643.654C-559.786 612.725 -555.546 580.732 -549.876 548.085Z" stroke="white" stroke-width="0.1138" stroke-miterlimit="10"/>
<path d="M-556.661 535.975C-508.062 277.319 -368.753 0.610792 -213.692 -144.947C-57.7995 -291.276 87.6933 -280.424 144.336 -119.162C201.206 42.767 158.54 330.522 39.5663 585.695C-78.9566 839.906 -252.521 1019.42 -387.967 1027.81C-521.094 1036.06 -595.343 875.438 -570.713 632.344C-567.55 601.101 -562.832 568.838 -556.661 535.975Z" stroke="white" stroke-width="0.1154" stroke-miterlimit="10"/>
<path d="M-563.376 523.411C-510.739 263.168 -365.92 -11.637 -206.845 -152.81C-46.9209 -294.737 100.416 -277.725 155.714 -111.885C211.245 54.6443 164.236 344.631 40.3111 598.438C-83.1517 851.287 -261.419 1026.13 -398.819 1029.05C-533.866 1031.91 -607.025 865.993 -578.885 620.537C-575.269 588.99 -570.067 556.479 -563.376 523.411Z" stroke="white" stroke-width="0.117" stroke-miterlimit="10"/>
<path d="M-570.023 510.393C-513.27 248.71 -362.893 -23.9308 -199.808 -160.498C-35.8564 -297.793 113.261 -274.462 167.152 -104.033C221.26 67.1016 169.826 359.18 40.8982 611.39C-87.547 862.657 -270.524 1032.57 -409.831 1029.85C-546.751 1027.18 -618.738 855.939 -587.009 608.233C-582.933 576.398 -577.236 543.641 -570.023 510.393Z" stroke="white" stroke-width="0.1186" stroke-miterlimit="10"/>
<path d="M-576.589 496.926C-515.642 233.949 -359.658 -36.2717 -192.574 -168.003C-24.5992 -300.438 126.245 -270.625 178.638 -95.6016C231.249 80.1448 175.295 374.155 41.3204 624.55C-92.1495 874.002 -279.838 1038.72 -421.006 1030.21C-559.754 1021.85 -630.482 845.254 -595.084 595.418C-590.537 563.305 -584.335 530.336 -576.589 496.926Z" stroke="white" stroke-width="0.1203" stroke-miterlimit="10"/>
<path d="M-583.068 482.995C-517.859 218.884 -356.221 -48.6513 -185.139 -175.315C-13.1457 -302.653 139.358 -266.2 190.177 -86.5816C241.207 93.7749 180.651 389.561 41.5814 637.907C-96.9661 885.315 -289.357 1044.57 -432.338 1030.11C-572.865 1015.91 -642.251 833.939 -603.107 582.096C-598.072 549.724 -591.354 516.553 -583.068 482.995Z" stroke="white" stroke-width="0.122" stroke-miterlimit="10"/>
<path d="M-589.457 468.604C-519.912 203.513 -352.576 -61.063 -177.515 -182.423C-1.51791 -304.432 152.585 -261.169 201.747 -76.9598C251.117 108.013 185.87 405.409 41.6634 651.458C-101.993 896.584 -299.082 1050.11 -443.819 1029.55C-586.071 1009.35 -654.021 821.987 -611.059 568.256C-605.533 535.643 -598.293 502.284 -589.457 468.604Z" stroke="white" stroke-width="0.1237" stroke-miterlimit="10"/>
<path d="M-595.736 453.75C-521.78 187.846 -348.712 -73.4958 -169.687 -189.312C10.2983 -305.745 165.93 -255.528 213.357 -66.7287C260.98 122.851 190.964 421.687 41.5807 665.203C-107.238 907.802 -309.016 1055.32 -455.452 1028.5C-599.376 1002.14 -665.805 809.371 -618.941 553.891C-612.916 521.058 -605.136 487.537 -595.736 453.75Z" stroke="white" stroke-width="0.1254" stroke-miterlimit="10"/>
<path d="M-601.914 438.433C-523.479 171.888 -344.641 -85.9386 -161.667 -195.972C22.2882 -306.593 179.381 -249.25 224.99 -55.8667C270.785 138.315 195.913 438.407 41.3155 679.138C-112.699 918.963 -319.151 1060.2 -467.226 1026.96C-612.765 994.294 -677.573 796.102 -626.737 539.009C-620.201 505.963 -611.881 472.295 -601.914 438.433Z" stroke="white" stroke-width="0.1272" stroke-miterlimit="10"/>
<path d="M-607.976 422.644C-524.989 155.636 -340.354 -98.3922 -153.447 -202.396C34.4557 -306.959 192.939 -242.33 236.638 -44.3785C280.518 154.389 200.707 455.564 40.8609 693.255C-118.382 930.048 -329.487 1064.72 -479.141 1024.91C-626.233 985.782 -689.336 782.159 -634.449 523.595C-627.394 490.358 -618.52 456.572 -607.976 422.644Z" stroke="white" stroke-width="0.1289" stroke-miterlimit="10"/>
<path d="M-613.911 406.39C-526.304 139.099 -335.843 -110.831 -145.034 -208.57C46.7928 -306.827 206.584 -234.756 248.291 -32.249C290.171 171.096 205.339 473.152 40.2131 707.552C-124.285 941.058 -340.021 1068.89 -491.193 1022.34C-639.777 976.593 -701.075 767.54 -642.065 507.645C-634.477 474.24 -625.043 440.349 -613.911 406.39Z" stroke="white" stroke-width="0.1308" stroke-miterlimit="10"/>
<path d="M-619.715 389.657C-527.428 122.27 -331.105 -123.269 -136.423 -214.485C59.2958 -306.187 220.321 -226.519 259.95 -19.4791C299.741 188.416 209.814 491.172 39.3799 722.006C-130.418 951.973 -350.755 1072.67 -503.378 1019.24C-653.383 966.718 -712.788 752.227 -649.578 491.161C-641.45 457.607 -631.442 423.634 -619.715 389.657Z" stroke="white" stroke-width="0.1326" stroke-miterlimit="10"/>
<path d="M-625.379 372.459C-528.343 105.171 -326.143 -135.678 -127.62 -220.121C71.9608 -305.015 234.135 -217.59 271.6 -6.03952C309.221 206.387 214.107 509.634 38.3392 736.639C-136.769 962.789 -361.683 1076.07 -515.682 1015.59C-667.045 956.145 -724.451 736.221 -656.97 474.138C-648.295 440.452 -637.71 406.422 -625.379 372.459Z" stroke="white" stroke-width="0.1344" stroke-miterlimit="10"/>
<path d="M-630.897 354.784C-529.049 87.785 -320.949 -148.057 -118.625 -225.478C84.7771 -303.313 248.018 -207.975 283.227 8.06181C318.581 224.993 218.214 528.529 37.0916 751.429C-143.353 973.492 -372.803 1079.06 -528.108 1011.38C-680.75 944.862 -736.066 719.514 -664.245 456.573C-655.013 422.779 -643.84 388.71 -630.897 354.784Z" stroke="white" stroke-width="0.1363" stroke-miterlimit="10"/>
<path d="M-636.257 336.639C-529.534 70.1387 -315.523 -160.392 -109.435 -230.531C97.7513 -301.047 261.967 -197.65 294.831 22.8466C327.833 244.252 222.134 547.858 35.6335 766.38C-150.161 984.073 -384.117 1081.63 -540.649 1006.6C-694.5 932.855 -747.625 702.092 -671.388 438.467C-661.592 404.58 -649.817 370.5 -636.257 336.639Z" stroke="white" stroke-width="0.1382" stroke-miterlimit="10"/>
<path d="M-641.453 318.021C-529.797 52.2207 -309.865 -172.67 -100.058 -235.279C110.869 -298.223 275.967 -186.601 306.401 38.3108C336.961 264.156 225.857 567.615 33.9651 781.47C-157.206 994.518 -395.619 1083.77 -553.298 1001.24C-708.279 920.117 -759.113 683.955 -678.392 419.812C-668.019 385.86 -655.643 351.792 -641.453 318.021Z" stroke="white" stroke-width="0.1402" stroke-miterlimit="10"/>
<path d="M-646.48 298.93C-529.833 34.0489 -303.968 -184.89 -90.4892 -239.706C124.13 -294.813 290.018 -174.829 317.923 54.4683C345.945 284.713 229.367 587.802 32.0721 796.706C-164.481 1004.82 -407.299 1085.47 -566.05 995.277C-722.076 906.631 -770.52 665.086 -685.249 400.608C-674.292 366.614 -661.301 332.585 -646.48 298.93Z" stroke="white" stroke-width="0.1421" stroke-miterlimit="10"/>
<path d="M-651.327 279.363C-529.631 15.6203 -297.833 -197.037 -80.7337 -243.8C137.526 -290.809 304.102 -162.307 329.391 71.3232C354.788 305.926 232.665 608.411 29.9548 812.067C-171.99 1014.96 -419.171 1086.7 -578.901 988.703C-735.895 892.385 -781.838 645.485 -691.957 380.853C-680.398 346.84 -666.785 312.873 -651.327 279.363Z" stroke="white" stroke-width="0.1441" stroke-miterlimit="10"/>
<path d="M-655.978 259.327C-529.185 -3.05767 -291.452 -209.097 -70.7877 -247.542C151.055 -286.195 318.218 -149.03 340.804 88.893C363.483 327.802 235.744 629.45 27.613 827.567C-179.731 1024.93 -431.209 1087.47 -591.834 981.512C-749.704 877.37 -793.049 625.141 -698.486 360.546C-686.33 326.541 -672.089 292.664 -655.978 259.327Z" stroke="white" stroke-width="0.1462" stroke-miterlimit="10"/>
<path d="M-660.431 238.818C-528.48 -21.9786 -284.827 -221.064 -60.6585 -250.935C164.708 -280.963 332.349 -134.993 352.136 107.166C372.001 350.333 238.583 650.895 25.033 843.17C-187.71 1034.73 -443.425 1087.75 -604.848 973.688C-763.505 861.581 -804.146 604.062 -704.838 339.693C-692.076 305.71 -677.2 271.953 -660.431 238.818Z" stroke="white" stroke-width="0.1482" stroke-miterlimit="10"/>
<path d="M-664.682 217.84C-527.531 -41.1271 -277.959 -232.918 -50.3502 -253.951C178.475 -275.095 346.491 -120.172 363.379 126.172C380.335 373.534 241.178 672.765 22.2145 858.897C-195.924 1044.33 -455.814 1087.53 -617.944 965.212C-777.299 844.999 -815.122 582.219 -711.013 318.279C-697.631 284.358 -682.109 250.745 -664.682 217.84Z" stroke="white" stroke-width="0.1503" stroke-miterlimit="10"/>
<path d="M-668.713 196.398C-526.313 -60.5071 -270.84 -244.657 -39.8591 -256.582C192.354 -268.57 360.635 -104.561 374.537 145.906C388.495 397.408 243.537 695.046 19.1579 874.721C-204.374 1053.72 -468.362 1086.79 -631.102 956.087C-791.053 827.625 -825.962 559.633 -716.986 296.325C-702.978 262.476 -686.808 229.04 -668.713 196.398Z" stroke="white" stroke-width="0.1524" stroke-miterlimit="10"/>
<path d="M-672.517 174.491C-524.826 -80.1038 -263.469 -256.265 -29.193 -258.818C206.336 -261.384 374.765 -88.1467 385.581 166.369C396.442 421.937 245.622 717.731 15.8454 890.636C-213.064 1062.9 -481.079 1085.53 -644.324 946.284C-804.77 809.43 -836.652 536.278 -722.755 273.809C-708.116 240.075 -691.284 206.837 -672.517 174.491Z" stroke="white" stroke-width="0.1545" stroke-miterlimit="10"/>
<path d="M-676.091 152.122C-523.064 -99.9105 -255.85 -267.726 -18.352 -260.64C220.413 -253.516 388.872 -70.9174 396.511 187.581C404.184 447.15 247.446 740.822 12.2806 906.647C-221.993 1071.84 -493.947 1083.72 -657.597 935.808C-818.44 790.429 -847.188 512.163 -728.31 250.749C-713.025 217.145 -695.535 184.145 -676.091 152.122Z" stroke="white" stroke-width="0.1567" stroke-miterlimit="10"/>
<path d="M-679.42 129.293C-521.014 -119.923 -247.977 -279.04 -7.33938 -262.051C234.581 -244.97 402.943 -52.8796 407.313 209.528C411.695 473.02 248.991 764.302 8.46043 922.721C-231.161 1080.54 -506.97 1081.35 -670.911 924.625C-832.045 770.585 -857.542 487.267 -733.636 227.131C-717.71 193.697 -699.548 160.956 -679.42 129.293Z" stroke="white" stroke-width="0.1589" stroke-miterlimit="10"/>
<path d="M-682.493 106.007C-518.678 -140.134 -239.848 -290.183 3.84379 -263.022C248.833 -235.718 416.977 -34.0048 417.976 232.228C418.975 499.563 250.246 788.174 4.37411 938.862C-240.564 1088.98 -520.135 1078.42 -684.258 912.743C-845.569 749.912 -867.716 461.601 -738.723 202.966C-722.145 169.727 -703.309 137.285 -682.493 106.007Z" stroke="white" stroke-width="0.1611" stroke-miterlimit="10"/>
<path d="M-685.308 82.2749C-516.049 -160.522 -231.465 -301.143 15.1871 -263.542C263.153 -225.744 430.949 -14.2827 428.481 255.691C426.003 526.778 251.214 812.434 0.0290226 955.062C-250.209 1097.15 -533.444 1074.89 -697.635 900.146C-859.014 728.388 -877.694 435.162 -743.571 178.262C-726.331 145.243 -706.814 113.128 -685.308 82.2749Z" stroke="white" stroke-width="0.1634" stroke-miterlimit="10"/>
<path d="M-687.849 58.0966C-513.116 -181.084 -222.821 -311.912 26.6902 -263.604C277.536 -215.043 444.848 6.2828 438.822 279.903C432.772 554.658 251.872 837.064 -4.59254 971.304C-260.088 1105.04 -546.885 1070.78 -711.031 886.821C-872.36 706.018 -887.468 407.943 -748.158 153.011C-730.254 120.244 -710.052 88.4895 -687.849 58.0966Z" stroke="white" stroke-width="0.1657" stroke-miterlimit="10"/>
<path d="M-690.111 33.4794C-509.875 -201.808 -213.923 -322.469 38.3526 -263.188C291.979 -203.592 458.678 27.7168 448.995 304.889C439.274 583.209 252.221 862.068 -9.48683 987.584C-270.205 1112.62 -560.462 1066.05 -724.434 872.758C-885.594 682.78 -897.015 379.944 -752.481 127.217C-733.901 94.7349 -713.009 63.3762 -690.111 33.4794Z" stroke="white" stroke-width="0.168" stroke-miterlimit="10"/>
<path d="M-692.077 8.42408C-506.317 -222.691 -204.761 -332.809 50.1741 -262.285C306.47 -191.392 472.415 50.0121 458.978 330.64C445.484 612.42 252.246 887.435 -14.6608 1003.89C-280.564 1119.9 -574.156 1060.69 -737.835 857.948C-898.708 658.675 -906.323 351.159 -756.522 100.892C-737.265 68.7265 -715.678 37.7888 -692.077 8.42408Z" stroke="white" stroke-width="0.1703" stroke-miterlimit="10"/>
<path d="M-693.746 -17.0591C-502.437 -243.715 -195.342 -342.912 62.1405 -260.882C320.996 -178.418 486.048 73.1894 468.758 357.158C451.403 642.299 251.941 913.154 -20.1179 1020.2C-291.153 1126.85 -587.966 1054.7 -751.221 842.378C-911.68 633.695 -915.38 321.591 -760.274 74.0352C-740.339 42.2149 -718.056 11.7376 -693.746 -17.0591Z" stroke="white" stroke-width="0.1727" stroke-miterlimit="10"/>
<path d="M-695.106 -42.9664C-498.237 -264.872 -185.666 -352.764 74.2475 -258.968C335.551 -164.671 499.556 97.245 478.326 384.448C457.006 672.835 251.294 939.217 -25.8648 1036.52C-301.979 1133.46 -601.89 1048.05 -764.594 826.036C-924.507 607.829 -924.183 291.235 -763.733 46.6428C-743.104 15.2077 -720.118 -14.7733 -695.106 -42.9664Z" stroke="white" stroke-width="0.1751" stroke-miterlimit="10"/>
<path d="M-696.144 -69.2898C-493.694 -286.149 -175.722 -362.36 86.499 -256.526C350.12 -150.129 512.941 122.201 487.669 412.511C462.292 704.027 250.3 965.614 -31.9016 1052.83C-313.038 1139.71 -615.913 1040.73 -777.93 808.921C-937.168 581.079 -932.703 260.102 -766.875 18.734C-745.555 -12.291 -721.867 -41.74 -696.144 -69.2898Z" stroke="white" stroke-width="0.1776" stroke-miterlimit="10"/>
<path d="M-696.852 -96.0224C-488.816 -307.537 -165.523 -371.675 98.8872 -253.547C364.707 -134.788 526.18 148.048 496.775 441.35C467.244 735.871 248.954 992.337 -38.2279 1069.11C-324.326 1145.59 -630.03 1032.74 -791.223 791.012C-949.654 553.431 -940.932 228.175 -769.695 -9.69514C-747.682 -40.2706 -723.285 -69.1515 -696.852 -96.0224Z" stroke="white" stroke-width="0.1801" stroke-miterlimit="10"/>
<path d="M-697.223 -123.157C-483.593 -329.02 -155.064 -380.7 111.401 -250.015C379.285 -118.631 539.263 174.799 505.624 470.965C471.84 768.36 247.225 1019.38 -44.8615 1085.36C-335.852 1151.09 -644.235 1024.04 -804.466 772.302C-961.948 524.88 -948.861 195.467 -772.181 -38.6372C-749.468 -68.7271 -724.366 -97.0009 -697.223 -123.157Z" stroke="white" stroke-width="0.1826" stroke-miterlimit="10"/>
</g>
<g opacity="0.4" clip-path="url(#clip2_3619_13123)">
<path d="M1775.54 661.289C1759.79 422.605 1667.44 139.225 1548.14 -36.0952C1428.21 -212.352 1301.29 -249.705 1235.93 -128.805C1170.3 -7.40531 1177.97 254.472 1254.93 512.746C1331.59 770.048 1463.43 980.597 1579.7 1031.32C1693.98 1081.18 1774.5 966.488 1777.9 748.921C1778.34 720.955 1777.54 691.616 1775.54 661.289Z" stroke="white" stroke-width="0.1018" stroke-miterlimit="10"/>
<path d="M1782.62 652.61C1763.54 411.26 1666.23 127.756 1543.02 -45.0746C1419.15 -218.828 1290.02 -251.458 1225.35 -126.185C1160.42 -0.391586 1171.61 264.806 1252.98 523.496C1334.06 781.211 1470.44 989.238 1588.96 1035.87C1705.45 1081.7 1785.56 962.092 1786.16 741.362C1786.24 712.987 1785.05 683.276 1782.62 652.61Z" stroke="white" stroke-width="0.1032" stroke-miterlimit="10"/>
<path d="M1789.69 643.515C1767.2 399.6 1664.86 116.175 1537.72 -53.9729C1409.89 -225.025 1278.58 -252.778 1214.67 -123.091C1150.49 7.13387 1165.3 275.555 1251.16 534.473C1336.7 792.42 1477.66 997.706 1598.4 1040.09C1717.07 1081.74 1796.71 957.167 1794.44 733.344C1794.15 704.586 1792.55 674.506 1789.69 643.515Z" stroke="white" stroke-width="0.1046" stroke-miterlimit="10"/>
<path d="M1796.74 634.005C1770.75 387.632 1663.32 104.491 1532.22 -62.7667C1400.42 -230.917 1266.96 -253.633 1203.88 -119.508C1140.53 15.1762 1159.04 286.715 1249.46 545.688C1339.53 803.687 1485.09 1006.01 1608.02 1044C1728.85 1081.33 1807.95 951.736 1802.72 724.893C1802.05 695.741 1800.04 665.31 1796.74 634.005Z" stroke="white" stroke-width="0.1061" stroke-miterlimit="10"/>
<path d="M1803.76 624.074C1774.2 375.347 1661.61 92.7169 1526.54 -71.4568C1390.75 -236.505 1255.18 -254.027 1192.99 -115.43C1130.54 23.7381 1152.85 298.288 1247.88 557.123C1342.55 814.986 1492.73 1014.11 1617.83 1047.54C1740.79 1080.41 1819.27 945.742 1811.01 715.969C1809.95 686.445 1807.51 655.675 1803.76 624.074Z" stroke="white" stroke-width="0.1076" stroke-miterlimit="10"/>
<path d="M1810.74 613.714C1777.53 362.752 1659.72 80.8421 1520.67 -80.0326C1380.87 -241.763 1243.23 -253.935 1182 -110.841C1120.52 32.8408 1146.73 310.279 1246.43 568.791C1345.75 826.325 1500.58 1022.01 1627.82 1050.75C1752.88 1079 1830.67 939.223 1819.29 706.598C1817.83 676.694 1814.96 645.6 1810.74 613.714Z" stroke="white" stroke-width="0.1091" stroke-miterlimit="10"/>
<path d="M1817.68 602.921C1780.74 349.845 1657.64 68.8808 1514.6 -88.4904C1370.79 -246.7 1231.11 -253.352 1170.92 -105.746C1110.48 42.4702 1140.67 322.681 1245.1 580.668C1349.14 837.682 1508.63 1029.69 1637.98 1053.58C1765.11 1077.06 1842.13 932.123 1827.56 696.736C1825.69 666.486 1822.37 635.077 1817.68 602.921Z" stroke="white" stroke-width="0.1106" stroke-miterlimit="10"/>
<path d="M1824.58 591.692C1783.83 336.624 1655.38 56.837 1508.34 -96.8052C1360.51 -251.274 1218.84 -252.252 1159.76 -100.109C1100.44 52.6613 1134.7 335.521 1243.92 592.779C1352.73 849.06 1516.9 1037.16 1648.32 1056.03C1777.49 1074.59 1853.66 924.46 1835.83 686.405C1833.53 655.809 1829.75 624.101 1824.58 591.692Z" stroke="white" stroke-width="0.1122" stroke-miterlimit="10"/>
<path d="M1831.42 580.017C1786.79 323.088 1652.94 44.722 1501.89 -104.991C1350.03 -255.501 1206.42 -250.644 1148.53 -93.9476C1090.39 63.3936 1128.81 348.771 1242.88 605.091C1356.52 860.448 1525.38 1044.38 1658.84 1058.09C1790 1071.57 1865.25 916.213 1844.06 675.585C1841.33 644.656 1837.09 612.664 1831.42 580.017Z" stroke="white" stroke-width="0.1138" stroke-miterlimit="10"/>
<path d="M1838.21 567.906C1789.61 309.251 1650.3 32.5424 1495.24 -113.015C1339.35 -259.344 1193.85 -248.492 1137.21 -87.23C1080.34 74.6986 1123.01 362.454 1241.98 617.626C1360.5 871.837 1534.07 1051.35 1669.51 1059.74C1802.64 1067.99 1876.89 907.37 1852.26 664.275C1849.1 633.032 1844.38 600.769 1838.21 567.906Z" stroke="white" stroke-width="0.1154" stroke-miterlimit="10"/>
<path d="M1844.92 555.342C1792.28 295.1 1647.47 20.2946 1488.39 -120.878C1328.47 -262.805 1181.13 -245.794 1125.83 -79.9529C1070.3 86.576 1117.31 376.563 1241.23 630.37C1364.7 883.218 1542.96 1058.06 1680.36 1060.98C1815.41 1063.85 1888.57 897.925 1860.43 652.468C1856.81 620.922 1851.61 588.41 1844.92 555.342Z" stroke="white" stroke-width="0.117" stroke-miterlimit="10"/>
<path d="M1851.57 542.325C1794.82 280.641 1644.44 8.00082 1481.35 -128.566C1317.4 -265.861 1168.29 -242.531 1114.39 -72.1015C1060.29 99.0333 1111.72 391.111 1240.65 643.322C1369.09 894.589 1552.07 1064.5 1691.38 1061.78C1828.3 1059.11 1900.28 887.871 1868.55 640.165C1864.48 608.33 1858.78 575.573 1851.57 542.325Z" stroke="white" stroke-width="0.1186" stroke-miterlimit="10"/>
<path d="M1858.14 528.858C1797.19 265.88 1641.2 -4.34007 1474.12 -136.072C1306.14 -268.506 1155.3 -238.693 1102.91 -63.67C1050.3 112.076 1106.25 406.086 1240.23 656.481C1373.7 905.934 1561.38 1070.65 1702.55 1062.14C1841.3 1053.78 1912.03 877.186 1876.63 627.35C1872.08 595.237 1865.88 562.268 1858.14 528.858Z" stroke="white" stroke-width="0.1203" stroke-miterlimit="10"/>
<path d="M1864.61 514.927C1799.4 250.815 1637.77 -16.7196 1466.68 -143.383C1294.69 -270.721 1142.19 -234.269 1091.37 -54.65C1040.34 125.707 1100.89 421.493 1239.96 669.839C1378.51 917.246 1570.9 1076.5 1713.88 1062.05C1854.41 1047.84 1923.8 865.871 1884.65 614.028C1879.62 581.656 1872.9 548.484 1864.61 514.927Z" stroke="white" stroke-width="0.122" stroke-miterlimit="10"/>
<path d="M1871 500.536C1801.46 235.445 1634.12 -29.1314 1459.06 -150.491C1283.06 -272.5 1128.96 -229.238 1079.8 -45.0281C1030.43 139.944 1095.68 437.34 1239.88 683.39C1383.54 928.515 1580.63 1082.04 1725.36 1061.48C1867.62 1041.28 1935.57 853.918 1892.6 600.188C1887.08 567.574 1879.84 534.216 1871 500.536Z" stroke="white" stroke-width="0.1237" stroke-miterlimit="10"/>
<path d="M1877.28 485.682C1803.33 219.777 1630.26 -41.5642 1451.23 -157.381C1271.25 -273.813 1115.62 -223.596 1068.19 -34.7971C1020.57 154.782 1090.58 453.619 1239.97 697.135C1388.78 939.734 1590.56 1087.25 1737 1060.43C1880.92 1034.07 1947.35 841.303 1900.49 585.822C1894.46 552.989 1886.68 519.469 1877.28 485.682Z" stroke="white" stroke-width="0.1254" stroke-miterlimit="10"/>
<path d="M1883.46 470.364C1805.02 203.82 1626.19 -54.0069 1443.21 -164.041C1259.26 -274.661 1102.16 -217.318 1056.56 -23.935C1010.76 170.246 1085.63 470.339 1240.23 711.07C1394.25 950.895 1600.7 1092.13 1748.77 1058.89C1894.31 1026.23 1959.12 828.034 1908.28 570.94C1901.75 537.895 1893.43 504.227 1883.46 470.364Z" stroke="white" stroke-width="0.1272" stroke-miterlimit="10"/>
<path d="M1889.52 454.576C1806.53 187.568 1621.9 -66.4606 1434.99 -170.465C1247.09 -275.027 1088.61 -210.398 1044.91 -12.4468C1001.03 186.321 1080.84 487.496 1240.68 725.187C1399.93 961.98 1611.03 1096.66 1760.69 1056.84C1907.78 1017.71 1970.88 814.091 1915.99 555.526C1908.94 522.29 1900.07 488.503 1889.52 454.576Z" stroke="white" stroke-width="0.1289" stroke-miterlimit="10"/>
<path d="M1895.46 438.321C1807.85 171.03 1617.39 -78.899 1426.58 -176.638C1234.75 -274.895 1074.96 -202.825 1033.26 -0.317391C991.375 203.027 1076.21 505.083 1241.33 739.483C1405.83 972.99 1621.57 1100.82 1772.74 1054.27C1921.32 1008.52 1982.62 799.472 1923.61 539.577C1916.02 506.171 1906.59 472.281 1895.46 438.321Z" stroke="white" stroke-width="0.1308" stroke-miterlimit="10"/>
<path d="M1901.26 421.589C1808.97 154.202 1612.65 -91.3372 1417.97 -182.554C1222.25 -274.256 1061.22 -194.588 1021.6 12.4526C981.804 220.348 1071.73 523.104 1242.17 753.937C1411.96 983.905 1632.3 1104.6 1784.92 1051.17C1934.93 998.65 1994.33 784.159 1931.12 523.092C1923 489.539 1912.99 455.566 1901.26 421.589Z" stroke="white" stroke-width="0.1326" stroke-miterlimit="10"/>
<path d="M1906.92 404.391C1809.89 137.102 1607.69 -103.746 1409.17 -188.19C1209.58 -273.083 1047.41 -185.658 1009.95 25.8921C972.325 238.319 1067.44 541.566 1243.21 768.57C1418.31 994.72 1643.23 1108 1797.23 1047.52C1948.59 988.077 2006 768.153 1938.52 506.07C1929.84 472.383 1919.26 438.353 1906.92 404.391Z" stroke="white" stroke-width="0.1344" stroke-miterlimit="10"/>
<path d="M1912.44 386.716C1810.59 119.717 1602.49 -116.125 1400.17 -193.547C1196.77 -271.382 1033.53 -176.043 998.318 39.9935C962.965 256.924 1063.33 560.461 1244.45 783.36C1424.9 1005.42 1654.35 1110.99 1809.65 1043.31C1962.3 976.793 2017.61 751.446 1945.79 488.505C1936.56 454.711 1925.39 420.641 1912.44 386.716Z" stroke="white" stroke-width="0.1363" stroke-miterlimit="10"/>
<path d="M1917.8 368.571C1811.08 102.07 1597.07 -128.461 1390.98 -198.599C1183.79 -269.115 1019.58 -165.719 986.714 54.7783C953.713 276.183 1059.41 579.789 1245.91 798.311C1431.71 1016 1665.66 1113.56 1822.2 1038.53C1976.05 964.787 2029.17 734.024 1952.93 470.399C1943.14 436.511 1931.36 402.432 1917.8 368.571Z" stroke="white" stroke-width="0.1382" stroke-miterlimit="10"/>
<path d="M1923 349.953C1811.34 84.1523 1591.41 -140.738 1381.6 -203.348C1170.68 -266.291 1005.58 -154.67 975.144 70.2424C944.585 296.088 1055.69 599.547 1247.58 813.401C1438.75 1026.45 1677.16 1115.7 1834.84 1033.17C1989.82 952.049 2040.66 715.887 1959.94 451.744C1949.56 417.792 1937.19 383.723 1923 349.953Z" stroke="white" stroke-width="0.1402" stroke-miterlimit="10"/>
<path d="M1928.03 330.862C1811.38 65.9805 1585.51 -152.958 1372.03 -207.774C1157.42 -262.881 991.527 -142.897 963.623 86.3999C935.6 316.644 1052.18 619.734 1249.47 828.638C1446.03 1036.75 1688.84 1117.4 1847.6 1027.21C2003.62 938.562 2052.07 697.018 1966.79 432.54C1955.84 398.545 1942.85 364.517 1928.03 330.862Z" stroke="white" stroke-width="0.1421" stroke-miterlimit="10"/>
<path d="M1932.87 311.294C1811.18 47.5519 1579.38 -165.105 1362.28 -211.868C1144.02 -258.878 977.444 -130.376 952.154 103.255C926.757 337.857 1048.88 640.343 1251.59 843.999C1453.54 1046.89 1700.72 1118.63 1860.45 1020.63C2017.44 924.317 2063.38 677.417 1973.5 412.784C1961.94 378.772 1948.33 344.805 1932.87 311.294Z" stroke="white" stroke-width="0.1441" stroke-miterlimit="10"/>
<path d="M1937.52 291.258C1810.73 28.874 1573 -177.165 1352.33 -215.611C1130.49 -254.263 963.327 -117.098 940.741 120.825C918.063 359.733 1045.8 661.381 1253.93 859.499C1461.28 1056.86 1712.76 1119.4 1873.38 1013.44C2031.25 909.302 2074.59 657.073 1980.03 392.477C1967.88 358.472 1953.63 324.596 1937.52 291.258Z" stroke="white" stroke-width="0.1462" stroke-miterlimit="10"/>
<path d="M1941.98 270.749C1810.03 9.95303 1566.37 -189.132 1342.2 -219.003C1116.84 -249.032 949.196 -103.062 929.41 139.098C909.545 382.264 1042.96 682.826 1256.51 875.101C1469.26 1066.66 1724.97 1119.68 1886.39 1005.62C2045.05 893.513 2085.69 635.993 1986.38 371.625C1973.62 337.642 1958.75 303.885 1941.98 270.749Z" stroke="white" stroke-width="0.1482" stroke-miterlimit="10"/>
<path d="M1946.23 249.772C1809.08 -9.19544 1559.5 -200.986 1331.9 -222.02C1103.07 -243.163 935.055 -88.2408 918.167 158.103C901.211 405.465 1040.37 704.697 1259.33 890.829C1477.47 1076.26 1737.36 1119.46 1899.49 997.144C2058.84 876.93 2096.67 614.15 1992.56 350.211C1979.18 316.29 1963.65 282.677 1946.23 249.772Z" stroke="white" stroke-width="0.1503" stroke-miterlimit="10"/>
<path d="M1950.26 228.329C1807.86 -28.5754 1552.39 -212.725 1321.4 -224.65C1089.19 -236.638 920.911 -72.6289 907.009 177.838C893.051 429.34 1038.01 726.978 1262.39 906.652C1485.92 1085.65 1749.91 1118.72 1912.65 988.019C2072.6 859.557 2107.51 591.565 1998.53 328.256C1984.52 294.408 1968.35 260.971 1950.26 228.329Z" stroke="white" stroke-width="0.1524" stroke-miterlimit="10"/>
<path d="M1954.06 206.422C1806.37 -48.1721 1545.01 -224.334 1310.74 -226.887C1075.21 -229.452 906.781 -56.2151 895.965 198.3C885.103 453.869 1035.92 749.662 1265.7 922.568C1494.61 1094.83 1762.62 1117.46 1925.87 978.216C2086.32 841.361 2118.2 568.21 2004.3 305.74C1989.66 272.007 1972.83 238.769 1954.06 206.422Z" stroke="white" stroke-width="0.1545" stroke-miterlimit="10"/>
<path d="M1957.64 184.054C1804.61 -67.9788 1537.4 -235.795 1299.9 -228.709C1061.13 -221.585 892.673 -38.9858 885.035 219.512C877.362 479.081 1034.1 772.753 1269.27 938.578C1503.54 1103.78 1775.49 1115.65 1939.14 967.739C2099.99 822.361 2128.73 544.094 2009.86 282.68C1994.57 249.077 1977.08 216.077 1957.64 184.054Z" stroke="white" stroke-width="0.1567" stroke-miterlimit="10"/>
<path d="M1960.97 161.225C1802.56 -87.9911 1529.52 -247.108 1288.89 -230.119C1046.96 -213.039 878.602 -20.9479 874.233 241.46C869.851 504.952 1032.55 796.233 1273.09 954.653C1512.71 1112.47 1788.52 1113.28 1952.46 956.557C2113.59 802.517 2139.09 519.199 2015.18 259.063C1999.26 225.629 1981.09 192.888 1960.97 161.225Z" stroke="white" stroke-width="0.1589" stroke-miterlimit="10"/>
<path d="M1964.04 137.939C1800.22 -108.202 1521.39 -258.252 1277.7 -231.09C1032.71 -203.786 864.568 -2.07319 863.57 264.16C862.571 531.495 1031.3 820.105 1277.17 970.793C1522.11 1120.91 1801.68 1110.35 1965.8 944.675C2127.11 781.844 2149.26 493.533 2020.27 234.898C2003.69 201.659 1984.85 169.217 1964.04 137.939Z" stroke="white" stroke-width="0.1611" stroke-miterlimit="10"/>
<path d="M1966.85 114.207C1797.59 -128.591 1513.01 -269.211 1266.36 -231.61C1018.39 -193.812 850.596 17.6489 853.065 287.623C855.543 558.71 1030.33 844.365 1281.52 986.994C1531.75 1129.08 1814.99 1106.83 1979.18 932.077C2140.56 760.32 2159.24 467.094 2025.12 210.194C2007.88 177.174 1988.36 145.06 1966.85 114.207Z" stroke="white" stroke-width="0.1634" stroke-miterlimit="10"/>
<path d="M1969.4 90.0282C1794.66 -149.152 1504.37 -279.98 1254.86 -231.673C1004.01 -183.111 836.697 38.2144 842.723 311.835C848.774 586.589 1029.67 868.996 1286.14 1003.24C1541.63 1136.97 1828.43 1102.71 1992.58 918.752C2153.91 737.95 2169.01 439.875 2029.7 184.943C2011.8 152.176 1991.6 120.421 1969.4 90.0282Z" stroke="white" stroke-width="0.1657" stroke-miterlimit="10"/>
<path d="M1971.66 65.4111C1791.42 -169.876 1495.47 -290.537 1243.19 -231.256C989.566 -171.66 822.868 59.6485 832.55 336.82C842.272 615.14 1029.32 894 1291.03 1019.52C1551.75 1144.56 1842.01 1097.98 2005.98 904.69C2167.14 714.712 2178.56 411.876 2034.03 159.149C2015.45 126.667 1994.55 95.3078 1971.66 65.4111Z" stroke="white" stroke-width="0.168" stroke-miterlimit="10"/>
<path d="M1973.62 40.3557C1787.86 -190.759 1486.31 -300.878 1231.37 -230.353C975.076 -159.46 809.13 81.9438 822.567 362.572C836.061 644.352 1029.3 919.367 1296.21 1035.82C1562.11 1151.83 1855.7 1092.63 2019.38 889.879C2180.25 690.606 2187.87 383.091 2038.07 132.824C2018.81 100.658 1997.22 69.7204 1973.62 40.3557Z" stroke="white" stroke-width="0.1703" stroke-miterlimit="10"/>
<path d="M1975.29 14.8725C1783.98 -211.783 1476.89 -310.981 1219.41 -228.95C960.549 -146.487 795.498 105.121 812.788 389.089C830.142 674.231 1029.6 945.086 1301.66 1052.13C1572.7 1158.78 1869.51 1086.63 2032.77 874.31C2193.23 665.626 2196.93 353.522 2041.82 105.967C2021.88 74.1465 1999.6 43.6692 1975.29 14.8725Z" stroke="white" stroke-width="0.1727" stroke-miterlimit="10"/>
<path d="M1976.65 -11.0348C1779.78 -232.941 1467.21 -320.832 1207.3 -227.037C945.995 -132.739 781.989 129.177 803.22 416.38C824.54 704.766 1030.25 971.149 1307.41 1068.45C1583.52 1165.39 1883.44 1079.98 2046.14 857.967C2206.05 639.761 2205.73 323.167 2045.28 78.5745C2024.65 47.1393 2001.66 17.1583 1976.65 -11.0348Z" stroke="white" stroke-width="0.1751" stroke-miterlimit="10"/>
<path d="M1977.69 -37.3582C1775.24 -254.217 1457.27 -330.428 1195.05 -224.594C931.425 -118.197 768.605 154.132 793.877 444.443C819.254 735.958 1031.25 997.545 1313.45 1084.76C1594.58 1171.64 1897.46 1072.67 2059.48 840.852C2218.71 613.011 2214.25 292.033 2048.42 50.6656C2027.1 19.6406 2003.41 -9.80832 1977.69 -37.3582Z" stroke="white" stroke-width="0.1776" stroke-miterlimit="10"/>
<path d="M1978.4 -64.0907C1770.36 -275.606 1447.07 -339.744 1182.66 -221.615C916.839 -102.856 755.366 179.98 784.77 473.282C814.302 767.803 1032.59 1024.27 1319.77 1101.04C1605.87 1177.53 1911.58 1064.67 2072.77 822.944C2231.2 585.362 2222.48 260.107 2051.24 22.2365C2029.23 -8.33893 2004.83 -37.2199 1978.4 -64.0907Z" stroke="white" stroke-width="0.1801" stroke-miterlimit="10"/>
<path d="M1978.77 -91.2253C1765.14 -297.088 1436.61 -348.768 1170.14 -218.083C902.261 -86.6992 742.283 206.73 775.922 502.897C809.706 800.292 1034.32 1051.31 1326.41 1117.29C1617.4 1183.02 1925.78 1055.97 2086.01 804.234C2243.49 556.811 2230.41 227.398 2053.73 -6.70557C2031.01 -36.7955 2005.91 -65.0693 1978.77 -91.2253Z" stroke="white" stroke-width="0.1826" stroke-miterlimit="10"/>
</g>
<path fill-rule="evenodd" clip-rule="evenodd" d="M717.103 310.657C717.103 353.204 682.608 387.716 640.048 387.716C597.488 387.716 563 353.204 563 310.657C563 272.926 585.858 256.022 610.367 231.531L648.245 269.396L629.213 288.427L610.029 269.232C598.945 280.614 589.993 293.122 589.993 310.657C589.993 323.932 595.267 336.664 604.655 346.051C614.042 355.438 626.775 360.711 640.051 360.711C653.328 360.711 666.06 355.438 675.448 346.051C684.836 336.664 690.109 323.932 690.109 310.657C690.109 298.779 685.998 289.204 679.908 280.719L698.973 261.646C709.772 274.721 717.103 289.322 717.103 310.657Z" fill="url(#paint0_linear_3619_13123)"/>
<path fill-rule="evenodd" clip-rule="evenodd" d="M640.222 202C656.37 218.186 672.728 234.254 688.787 250.516L670.083 269.219C654.398 253.118 637.213 236.932 621.199 221.031L640.222 202Z" fill="url(#paint1_linear_3619_13123)"/>
<path d="M415.409 545.715H425.419L406.589 496.715H394.129L375.369 545.715H385.309L389.369 535.075H411.419L415.409 545.715ZM392.519 526.605L400.359 505.885L408.199 526.605H392.519ZM448.027 509.315C442.987 509.315 439.137 511.345 436.547 514.565V494.615H427.307V545.715H436.547V541.375C439.137 544.595 442.987 546.695 448.027 546.695C457.827 546.695 465.457 538.715 465.457 528.005C465.457 517.225 457.827 509.315 448.027 509.315ZM446.417 538.435C440.817 538.435 436.337 534.095 436.337 527.935C436.337 521.845 440.817 517.575 446.417 517.575C452.227 517.575 456.357 521.845 456.357 527.935C456.357 534.095 452.227 538.435 446.417 538.435ZM486.376 546.695C497.296 546.695 505.276 538.575 505.276 528.005C505.276 517.365 497.296 509.315 486.376 509.315C475.456 509.315 467.406 517.365 467.406 528.005C467.406 538.575 475.456 546.695 486.376 546.695ZM486.376 538.295C480.426 538.295 476.436 533.885 476.436 528.005C476.436 522.125 480.426 517.715 486.376 517.715C492.256 517.715 496.316 522.125 496.316 528.005C496.316 533.885 492.256 538.295 486.376 538.295ZM534.441 510.295V527.725C534.441 534.025 531.151 538.085 525.901 538.085C520.791 538.085 518.341 534.585 518.341 529.195V510.295H509.101V530.945C509.101 540.465 513.791 546.695 523.101 546.695C528.211 546.695 532.061 544.385 534.441 541.235V545.715H543.681V510.295H534.441ZM570.172 537.105C568.772 537.805 567.582 538.085 565.972 538.085C563.032 538.085 561.632 536.475 561.632 533.605V518.415H571.992V510.295H561.632V498.815H552.322V510.295H546.372V518.415H552.322V533.605C552.322 541.235 556.032 546.275 564.152 546.275C567.092 546.275 569.612 545.715 572.412 544.595L570.172 537.105ZM615.309 510.295V527.725C615.309 534.025 612.019 538.085 606.769 538.085C601.659 538.085 599.209 534.585 599.209 529.195V510.295H589.969V530.945C589.969 540.465 594.659 546.695 603.969 546.695C609.079 546.695 612.929 544.385 615.309 541.235V545.715H624.549V510.295H615.309ZM644.74 546.695C653.77 546.695 660.07 541.795 660.07 535.145C660.07 528.775 655.45 526.605 650.13 525.065L641.31 522.545C639.35 521.985 638.37 521.145 638.37 519.745C638.37 518.065 640.54 516.525 643.41 516.525C647.12 516.525 649.71 518.415 650.97 520.655L659.16 518.275C656.92 512.955 651.11 509.315 643.48 509.315C635.71 509.315 629.27 514.005 629.27 519.955C629.27 524.995 632.98 527.935 638.02 529.405L647.05 532.065C649.64 532.835 650.97 533.815 650.97 535.565C650.97 537.525 648.66 539.205 645.09 539.205C640.4 539.205 637.04 536.685 635.85 533.325L627.52 535.775C629.27 541.515 635.99 546.695 644.74 546.695ZM723.927 545.715L713.847 534.935C716.437 531.015 718.117 526.815 718.817 523.315L710.697 521.005C710.137 523.525 709.157 526.115 707.827 528.495L695.577 515.405C694.177 513.935 692.287 511.905 692.287 509.455C692.287 506.235 694.807 503.925 698.377 503.925C701.877 503.925 704.187 506.165 705.027 509.595L713.287 507.215C712.307 501.195 706.707 495.735 698.587 495.735C689.557 495.735 683.187 500.635 683.187 509.315C683.187 512.815 684.727 515.545 686.967 518.205C680.877 521.775 677.937 527.025 677.937 532.345C677.937 541.095 685.217 546.695 693.687 546.695C699.497 546.695 704.467 544.455 708.317 541.095L712.657 545.715H723.927ZM694.667 538.295C690.047 538.295 687.177 535.145 687.177 531.645C687.177 528.635 688.787 526.255 692.287 524.085L702.647 535.075C700.267 537.035 697.537 538.295 694.667 538.295ZM775.972 505.465V496.715H740.342V545.715H749.932V526.255H772.402V517.645H749.932V505.465H775.972ZM811.066 545.715H821.076L802.246 496.715H789.786L771.026 545.715H780.966L785.026 535.075H807.076L811.066 545.715ZM788.176 526.605L796.016 505.885L803.856 526.605H788.176ZM869.434 521.145C869.434 506.795 858.094 495.735 843.954 495.735C829.814 495.735 818.474 506.795 818.474 521.145C818.474 535.635 829.814 546.695 843.954 546.695C848.784 546.695 853.334 545.365 857.254 542.985L859.634 545.715H869.224L862.994 538.155C866.984 533.675 869.434 527.795 869.434 521.145ZM843.954 537.875C834.364 537.875 827.854 530.735 827.854 521.145C827.854 511.625 834.364 504.555 843.954 504.555C853.544 504.555 860.054 511.625 860.054 521.145C860.054 524.925 859.004 528.355 857.184 531.085L850.954 523.455H840.174L851.374 536.265C849.204 537.315 846.684 537.875 843.954 537.875ZM887.092 546.695C896.122 546.695 902.422 541.795 902.422 535.145C902.422 528.775 897.802 526.605 892.482 525.065L883.662 522.545C881.702 521.985 880.722 521.145 880.722 519.745C880.722 518.065 882.892 516.525 885.762 516.525C889.472 516.525 892.062 518.415 893.322 520.655L901.512 518.275C899.272 512.955 893.462 509.315 885.832 509.315C878.062 509.315 871.622 514.005 871.622 519.955C871.622 524.995 875.332 527.935 880.372 529.405L889.402 532.065C891.992 532.835 893.322 533.815 893.322 535.565C893.322 537.525 891.012 539.205 887.442 539.205C882.752 539.205 879.392 536.685 878.202 533.325L869.872 535.775C871.622 541.515 878.342 546.695 887.092 546.695Z" fill="white"/>
<circle opacity="0.6" cx="640" cy="390" r="66" fill="#D9D9D9"/>
<path d="M663.625 390.85C664.257 390.46 664.257 389.54 663.625 389.15L624.526 364.963C623.86 364.551 623 365.03 623 365.814V414.186C623 414.97 623.86 415.449 624.526 415.037L663.625 390.85Z" fill="#D9D9D9"/>
</g>
<defs>
<linearGradient id="paint0_linear_3619_13123" x1="640.051" y1="231.531" x2="640.051" y2="387.716" gradientUnits="userSpaceOnUse">
<stop stop-color="#E9C786"/>
<stop offset="1" stop-color="#BE924F"/>
</linearGradient>
<linearGradient id="paint1_linear_3619_13123" x1="654.993" y1="202" x2="654.993" y2="269.219" gradientUnits="userSpaceOnUse">
<stop stop-color="#E9C786"/>
<stop offset="1" stop-color="#BE924F"/>
</linearGradient>
<clipPath id="clip0_3619_13123">
<rect width="1280" height="780" fill="white"/>
</clipPath>
<clipPath id="clip1_3619_13123">
<rect width="1425.27" height="1425.58" fill="white" transform="translate(-221.978 1397.57) rotate(-133.939)"/>
</clipPath>
<clipPath id="clip2_3619_13123">
<rect width="1425.27" height="1425.58" fill="white" transform="matrix(0.693894 -0.720077 -0.720077 -0.693894 1503.52 1429.5)"/>
</clipPath>
</defs>
</svg>
